<svg xmlns="http://www.w3.org/2000/svg" width="115" height="33" fill="none"><g fill="#000" clip-path="url(#a)"><path d="M0 12.87v2.573h2.458v-2.574H0ZM11.647 4.526c-1.56 0-2.822.707-3.612 1.737h-.086V0H5.92v15.443h2.03v-5.298c0-2.123 1.325-3.646 3.27-3.646 1.838 0 2.907 1.373 2.907 3.217v5.727h2.03V9.352c0-2.939-1.816-4.826-4.51-4.826ZM26.617 4.827h-4.809V1.073h-2.03v3.754h-1.924V6.8h1.924v5.984c0 1.716.962 2.66 2.693 2.66h4.146v-1.995h-3.74c-.684 0-1.069-.386-1.069-1.05V6.8h4.81V4.827ZM41.121 4.547c-1.624 0-2.863.794-3.547 2.06h-.064c-.62-1.245-1.774-2.06-3.356-2.06-1.41 0-2.48.75-3.12 1.802h-.086V4.826h-1.945v10.617h2.03V9.995c0-1.995 1.048-3.453 2.63-3.496 1.495-.043 2.372 1.03 2.372 2.638v6.306h2.03v-5.62c0-2.38 1.41-3.324 2.63-3.324 1.474 0 2.35 1.03 2.35 2.638v6.306h2.03v-6.52c0-2.574-1.453-4.376-3.954-4.376ZM47.827 12.697c0 1.738.983 2.746 2.8 2.746h2.009V13.47h-1.71c-.684 0-1.069-.386-1.069-1.051V0h-2.03v12.697ZM28.905 19.689h-.086c-.792-1.066-2.076-1.813-3.79-1.834-3.147-.043-5.395 2.282-5.395 5.565 0 3.305 2.29 5.63 5.374 5.587 1.756-.022 3.019-.81 3.811-1.94h.086v1.641h2.013V18.154h-2.013v1.535Zm-3.597 7.356c-2.227 0-3.64-1.62-3.64-3.625 0-2.004 1.413-3.625 3.64-3.625 2.162 0 3.576 1.62 3.576 3.625 0 1.983-1.414 3.625-3.576 3.625ZM44.21 21.991c-.493-2.388-2.613-4.136-5.396-4.136-3.362 0-5.61 2.452-5.61 5.565 0 3.113 2.248 5.587 5.61 5.587 2.783 0 4.903-1.792 5.395-4.2h-2.12c-.427 1.342-1.69 2.26-3.254 2.26-2.184 0-3.597-1.643-3.597-3.647 0-2.004 1.413-3.625 3.597-3.625 1.627 0 2.827.96 3.255 2.196h2.12ZM55.084 19.689h-.086c-.792-1.066-2.077-1.813-3.79-1.834-3.147-.043-5.396 2.282-5.396 5.565 0 3.305 2.291 5.63 5.375 5.587 1.755-.022 3.019-.81 3.811-1.94h.086v1.641h2.012V18.154h-2.012v1.535Zm-3.598 7.356c-2.226 0-3.64-1.62-3.64-3.625 0-2.004 1.414-3.625 3.64-3.625 2.163 0 3.576 1.62 3.576 3.625 0 1.983-1.413 3.625-3.575 3.625ZM68.654 19.795h-.086c-.792-1.13-2.12-1.919-3.811-1.94-3.083-.043-5.374 2.282-5.374 5.587 0 3.283 2.248 5.607 5.395 5.565 1.67-.022 2.998-.768 3.769-1.834h.107v1.535h2.013V13.356h-2.013v6.44Zm-3.597 7.271c-2.227 0-3.64-1.62-3.64-3.624 0-2.005 1.413-3.625 3.64-3.625 2.162 0 3.575 1.642 3.575 3.625 0 2.004-1.413 3.624-3.575 3.624ZM78.33 17.855c-3.255 0-5.482 2.495-5.482 5.586 0 3.007 2.099 5.566 5.524 5.566 2.484 0 4.475-1.344 5.182-3.583h-2.12c-.47 1.003-1.605 1.642-2.976 1.642-1.927 0-3.297-1.28-3.447-2.92h8.757c.278-3.52-1.927-6.291-5.438-6.291Zm-.043 1.94c1.691 0 2.955 1.045 3.276 2.559h-6.51c.3-1.493 1.564-2.559 3.234-2.559ZM98.198 17.876c-1.627 0-2.868.79-3.554 2.047h-.064c-.62-1.236-1.777-2.047-3.362-2.047-1.413 0-2.483.746-3.126 1.791h-.085v-1.514h-1.949v10.555h2.034v-5.416c0-1.983 1.05-3.433 2.634-3.476 1.499-.042 2.377 1.024 2.377 2.623v6.269h2.034v-5.586c0-2.367 1.413-3.305 2.633-3.305 1.478 0 2.355 1.023 2.355 2.622v6.269h2.035v-6.482c0-2.559-1.456-4.35-3.962-4.35ZM109.441 27.024l-3.64-8.87h-2.248l4.839 11.556-.021.043c-.343.874-.728 1.194-1.67 1.194h-2.505v2.026h2.505c1.841 0 2.826-.832 3.511-2.623l4.668-12.196h-2.077l-3.362 8.87Z"/></g><defs><clipPath id="a"><path fill="#fff" d="M0 0h115v33H0z"/></clipPath></defs></svg>